<?xml version="1.0" standalone="no"?>
<!DOCTYPE svg PUBLIC "-//W3C//DTD SVG 20010904//EN"
 "http://www.w3.org/TR/2001/REC-SVG-20010904/DTD/svg10.dtd">
<svg version="1.0" xmlns="http://www.w3.org/2000/svg"
 width="640.000000pt" height="640.000000pt" viewBox="0 0 640.000000 640.000000"
 preserveAspectRatio="xMidYMid meet">
<metadata>
Created by potrace 1.14, written by Peter Selinger 2001-2017
</metadata>
<g transform="translate(0.000000,640.000000) scale(0.100000,-0.100000)"
fill="#000000" stroke="none">
<path d="M4753 5374 c-16 -16 -87 -130 -157 -254 -71 -124 -134 -233 -141
-243 -11 -15 -13 6 -17 120 -4 120 -7 145 -28 187 -28 58 -87 118 -145 149
l-40 22 -1585 3 c-1780 3 -1637 9 -1729 -74 -29 -26 -61 -68 -75 -99 l-26 -54
0 -1958 0 -1958 24 -51 c31 -66 85 -120 155 -153 l56 -26 1549 -3 c1347 -2
1557 0 1607 13 101 25 170 82 213 175 21 44 21 59 26 880 l5 835 184 315 c177
303 226 388 486 840 65 113 139 241 165 285 268 463 320 557 320 578 0 14 -8
34 -17 45 -22 25 -748 444 -779 450 -16 3 -32 -5 -51 -24z m-553 -179 c16 -8
42 -31 57 -52 l28 -36 3 -256 c4 -291 16 -239 -106 -446 -36 -60 -84 -144
-107 -185 -23 -41 -84 -147 -135 -235 -51 -88 -134 -232 -185 -320 -51 -88
-186 -322 -300 -520 l-208 -360 -28 -250 c-16 -137 -44 -385 -63 -550 -23
-201 -31 -306 -25 -317 15 -29 57 -51 82 -44 13 3 64 36 113 74 49 37 175 133
279 212 105 79 260 197 346 262 l156 118 76 133 c42 72 83 141 91 152 14 18
15 -47 13 -656 l-2 -675 -25 -37 c-49 -73 82 -67 -1641 -67 -1475 0 -1554 1
-1583 18 -17 10 -41 33 -54 52 l-22 33 2 1936 3 1936 22 31 c49 68 -77 64
1636 64 1356 0 1552 -2 1577 -15z m772 -63 c73 -42 204 -118 290 -167 l157
-90 -23 -40 c-13 -22 -45 -79 -72 -127 -27 -49 -53 -88 -59 -88 -5 0 -44 20
-85 43 -403 232 -486 280 -493 286 -8 8 131 261 144 261 4 0 68 -35 141 -78z
m-93 -472 c152 -88 285 -165 295 -173 17 -12 13 -20 -52 -133 -38 -65 -139
-240 -224 -389 -250 -434 -595 -1032 -655 -1135 -73 -125 -101 -173 -143 -248
-19 -34 -38 -62 -42 -62 -6 0 -274 153 -428 244 -30 18 -79 46 -107 62 -29 16
-53 32 -53 35 0 6 17 37 192 339 52 91 148 257 213 370 65 113 143 248 173
300 123 211 350 605 446 772 55 98 103 178 105 178 2 0 128 -72 280 -160z
m-1282 -2054 c109 -63 236 -136 282 -162 46 -27 84 -53 83 -59 0 -5 -53 -51
-119 -100 -383 -293 -535 -407 -539 -403 -2 3 16 184 41 403 25 219 45 406 45
417 0 10 2 18 5 18 2 0 93 -51 202 -114z"/>
<path d="M1775 4505 c-14 -13 -25 -36 -25 -50 0 -14 11 -37 25 -50 l24 -25
816 0 c820 0 845 1 867 34 18 26 8 75 -18 95 -27 21 -32 21 -846 21 l-819 0
-24 -25z"/>
<path d="M1775 3925 c-14 -13 -25 -36 -25 -50 0 -14 11 -37 25 -50 l24 -25
819 0 c814 0 819 0 846 21 34 27 36 77 3 107 l-23 22 -823 0 -822 0 -24 -25z"/>
</g>
</svg>
